# AST/ASF file generated using VICON BodyLanguage
# -----------------------------------------------
:version 1.10
:name VICON
:units
  mass 1.0
  length 0.45
  angle deg
:documentation
   .ast/.asf automatically generated from VICON data using
   VICON BodyBuilder and BodyLanguage model FoxedUp or BRILLIANT.MOD
:root
   order TX TY TZ RX RY RZ
   axis XYZ
   position 0 0 0  
   orientation 0 0 0 
:bonedata
  begin
     id 1 
     name lhipjoint
     direction 0.624716 -0.669793 0.401383 
     length 2.38238 
     axis 0 0 0  XYZ
  end
  begin
     id 2 
     name lfemur
     direction 0.34202 -0.939693 0  
     length 6.4574  
     axis 0 0 20  XYZ
    dof rx ry rz
    limits (-160.0 20.0)
           (-70.0 70.0)
           (-60.0 70.0)
  end
  begin
     id 3 
     name ltibia
     direction 0.34202 -0.939693 0   
     length 7.68739   
     axis 0 0 20   XYZ
    dof rx
    limits (-10.0 170.0)
  end
  begin
     id 4 
     name lfoot
     direction 0.0681309 -0.187188 0.979959   
     length 2.46615   
     axis -90 7.62852e-016 20   XYZ
    dof rx rz
    limits (-45.0 90.0)
           (-70.0 20.0)
  end
  begin
     id 5 
     name ltoes
     direction 1.53566e-011 -4.21819e-011 1   
     length 1.2376   
     axis -90 7.62852e-016 20   XYZ
    dof rx
    limits (-90.0 20.0)
  end
  begin
     id 6 
     name rhipjoint
     direction -0.644473 -0.655875 0.393043   
     length 2.43293  
     axis 0 0 0  XYZ 
  end
  begin
     id 7 
     name rfemur
     direction -0.34202 -0.939693 0   
     length 6.7025   
     axis 0 0 -20   XYZ
    dof rx ry rz
    limits (-160.0 20.0)
           (-70.0 70.0)
           (-70.0 60.0)
  end
  begin
     id 8 
     name rtibia
     direction -0.34202 -0.939693 0   
     length 7.80547   
     axis 0 0 -20   XYZ
    dof rx
    limits (-10.0 170.0)
 end
 begin
     id 9 
     name rfoot
     direction -0.0756734 -0.207911 0.975216   
     length 2.40315  
     axis -90 -7.62852e-016 -20   XYZ
    dof rx rz
    limits (-45.0 90.0)
           (-20.0 70.0)
  end
  begin
     id 10 
     name rtoes
     direction -1.5353e-011 -4.21879e-011 1   
     length 1.20477   
     axis -90 -7.62852e-016 -20   XYZ
    dof rx
    limits (-90.0 20.0)
  end
  begin
     id 11 
     name lowerback
     direction 0.0160353 0.987463 -0.157037   
     length 2.18572   
     axis 0 0 0   XYZ
    dof rx ry rz
    limits (-20.0 45.0)
           (-30.0 30.0)
           (-30.0 30.0)
  end
  begin
     id 12 
     name upperback
     direction -0.00499661 0.999756 0.0215076   
     length 2.18016   
     axis 0 0 0   XYZ
    dof rx ry rz
    limits (-20.0 45.0)
           (-30.0 30.0)
           (-30.0 30.0)
  end
  begin
     id 13 
     name thorax
     direction -0.00921346 0.995333 0.0960619   
     length 2.24923   
     axis 0 0 0   XYZ
    dof rx ry rz
    limits (-20.0 45.0)
           (-30.0 30.0)
           (-30.0 30.0)
  end
  begin
     id 14 
     name lowerneck
     direction 0.0274184 0.991181 0.12965   
     length 1.70911   
     axis 0 0 0   XYZ
    dof rx ry rz
    limits (-20.0 45.0)
           (-30.0 30.0)
           (-30.0 30.0)
  end
  begin
     id 15 
     name upperneck
     direction 0.0015627 0.999959 -0.00893559   
     length 1.69312   
     axis 0 0 0   XYZ
    dof rx ry rz
    limits (-20.0 45.0)
           (-30.0 30.0)
           (-30.0 30.0)
  end
  begin
     id 16
     name head
     direction -0.00230242 0.999856 -0.0168327  
     length 1.80241  
     axis 0 0 0   XYZ
    dof rx ry rz
    limits (-20.0 45.0)
           (-30.0 30.0)
           (-30.0 30.0)
  end
  begin
     id 17 
     name lclavicle
     direction 0.955523 0.290741 -0.0494489  
     length 3.84275  
     axis 0 0 0   XYZ
    dof ry rz
    limits (-20.0 10.0)
           (0.0 20.0)
  end
  begin
     id 18 
     name lhumerus
     direction 1 -4.48967e-011 -3.18382e-028   
     length 5.17714   
     axis 180 -30 -90   XYZ
    dof rx ry rz
    limits (-60.0 90.0)
           (-90.0 90.0)
           (-90.0 90.0)
  end
  begin
     id 19
     name lradius
     direction 1 -4.48968e-011 -2.22911e-027   
     length 3.43679   
     axis 180 -30 -90   XYZ
    dof rx
    limits (-10.0 170.0)
  end
  begin
     id 20
     name lwrist
     direction 1 -4.48951e-011 -6.32245e-027   
     length 1.7184   
     axis 3.57107e-015 90 90   XYZ
    dof ry
    limits (-180.0 0.0)
 end
  begin
     id 21 
     name lhand
     direction 1 -4.48924e-011 -1.26431e-026   
     length 0.573117   
     axis 8.06912e-015 90 90   XYZ
    dof rx rz
    limits (-90.0 90.0)
           (-45.0 45.0)
  end
  begin
     id 22 
     name lfingers
     direction 1 -4.49001e-011 -2.52965e-026   
     length 0.462062   
     axis 1.61381e-014 90 90   XYZ
    dof rx
    limits (0.0 90.0)
  end
  begin
     id 23
     name lthumb
     direction 0.707107 -6.35008e-011 0.707107   
     length 0.663431   
     axis -90 45 -1.62303e-014   XYZ
    dof rx rz
    limits (-45.0 45.0)
           (-45.0 45.0)
  end
  begin
     id 24 
     name rclavicle
     direction -0.963917 0.256881 -0.0698287   
     length 3.73057  
     axis 0 0 0   XYZ 
    dof ry rz
    limits (-10.0 20.0)
           (-20.0 0.0)
  end
  begin
     id 25 
     name rhumerus
     direction -1 -4.48962e-011 -2.73982e-027  
     length 5.23908   
     axis 180 30 90   XYZ
    dof rx ry rz
    limits (-90.0 60.0)
           (-90.0 90.0)
           (-90.0 90.0)
  end
  begin
     id 26 
     name rradius
     direction -1 -4.48968e-011 -4.33218e-027   
     length 3.46485   
     axis 180 30 90   XYZ
    dof rx
    limits (-10.0 170.0)
  end
  begin
     id 27 
     name rwrist
     direction -1 -4.48989e-011 -6.32372e-027   
     length 1.73243   
     axis 3.57107e-015 -90 -90   XYZ
    dof ry
    limits (-180.0 0.0)
  end
  begin
     id 28
     name rhand
     direction -1 -4.48948e-011 -1.26448e-026   
     length 0.608752   
     axis 8.06912e-015 -90 -90   XYZ
    dof rx rz
    limits (-90.0 90.0)
           (-45.0 45.0)
  end
  begin
     id 29
     name rfingers
     direction -1 -4.48962e-011 -2.52913e-026   
     length 0.490792   
     axis 1.61381e-014 -90 -90   XYZ
    dof rx
    limits (0.0 90.0)
  end
  begin
     id 30
     name rthumb
     direction -0.707107 -6.34878e-011 0.707107   
     length 0.704682   
     axis -90 -45 1.62303e-014   XYZ
    dof rx rz
    limits (-45.0 45.0)
           (-45.0 45.0)
  end
:hierarchy
  begin
    root lhipjoint rhipjoint lowerback
    lhipjoint lfemur
    lfemur ltibia
    ltibia lfoot
    lfoot ltoes
    rhipjoint rfemur
    rfemur rtibia
    rtibia rfoot
    rfoot rtoes
    lowerback upperback
    upperback thorax
    thorax lowerneck lclavicle rclavicle
    lowerneck upperneck
    upperneck head
    lclavicle lhumerus
    lhumerus lradius
    lradius lwrist
    lwrist lhand lthumb
    lhand lfingers
    rclavicle rhumerus
    rhumerus rradius
    rradius rwrist
    rwrist rhand rthumb
    rhand rfingers
  end

#!OML:ASF G:\JayActor3\Patient Classification 1\Patient 1\Session 6\male.ASF
:FULLY-SPECIFIED
:DEGREES
68
root 48.7614 15.8219 -25.2957 35.1462 -82.312 -35.562
lowerback -0.0748706 1.34462 5.49282
upperback 3.92493 1.64487 -0.803441
thorax 4.29266 1.01032 -3.84906
lowerneck -5.19513 4.03906 5.24702
upperneck 10.5861 5.46677 -5.36592
head 4.30722 2.59003 -2.20618
rclavicle 1.81888e-014 -1.82882e-014
rhumerus -26.5707 -4.14315 -87.8233
rradius 35.9923
rwrist -2.36197
rhand -19.877 -5.20414
rfingers 7.12502
rthumb 6.45854 -35.0857
lclavicle 1.81888e-014 -1.82882e-014
lhumerus -36.2199 12.434 74.4067
lradius 25.4839
lwrist 19.2874
lhand -16.6429 9.3042
lfingers 7.12502
lthumb 9.57993 39.0664
rfemur -4.61843 5.52064 26.749
rtibia 31.5245
rfoot -22.7367 -8.22801
rtoes -0.880563
lfemur -10.6726 5.71723 -10.3016
ltibia 27.5233
lfoot -6.98093 -24.2416
ltoes 11.5371
69
root 48.7703 15.8208 -25.3297 33.4596 -81.9922 -33.9218
lowerback -0.0567465 1.3334 5.57986
upperback 3.93629 1.6274 -0.77535
thorax 4.29479 1.00438 -3.86977
lowerneck -5.21125 3.94338 5.15228
upperneck 10.5776 5.3337 -5.25197
head 4.2945 2.52705 -2.16357
rclavicle 3.16068e-014 2.78299e-015
rhumerus -26.6199 -4.25679 -87.7919
rradius 35.7862
rwrist -2.29922
rhand -19.8235 -5.35666
rfingers 7.12502
rthumb 6.51017 -35.2366
lclavicle 3.16068e-014 2.78299e-015
lhumerus -36.3033 12.3569 74.628
lradius 25.829
lwrist 19.4216
lhand -16.509 9.33637
lfingers 7.12502
lthumb 9.70907 39.0926
rfemur -4.50683 5.29424 26.8848
rtibia 31.3767
rfoot -22.8088 -8.37832
rtoes -0.757838
lfemur -10.8017 5.67038 -10.1953
ltibia 27.5556
lfoot -6.58637 -24.4687
ltoes 11.899
70
root 48.7795 15.8195 -25.3633 31.8916 -81.6699 -32.4014
lowerback -0.0373087 1.32206 5.66625
upperback 3.95149 1.60976 -0.749032
thorax 4.30022 0.998499 -3.89195
lowerneck -5.24959 3.84172 5.05559
upperneck 10.5872 5.19241 -5.13739
head 4.29078 2.45952 -2.12039
rclavicle 8.74653e-015 5.56597e-015
rhumerus -26.6517 -4.39464 -87.7544
rradius 35.5337
rwrist -2.20514
rhand -19.768 -5.48297
rfingers 7.12502
rthumb 6.56378 -35.3613
lclavicle 8.74653e-015 5.56597e-015
lhumerus -36.3648 12.2775 74.8517
lradius 26.1734
lwrist 19.5484
lhand -16.425 9.39217
lfingers 7.12502
lthumb 9.79012 39.1446
rfemur -4.40087 5.06061 27.0134
rtibia 31.2362
rfoot -22.8646 -8.53022
rtoes -0.688971
lfemur -10.9299 5.61925 -10.0955
ltibia 27.5864
lfoot -6.17583 -24.6929
ltoes 12.2899
71
root 48.789 15.8179 -25.3965 30.4037 -81.3498 -30.9623
lowerback -0.0205245 1.31027 5.74841
upperback 3.96467 1.59171 -0.725888
thorax 4.3049 0.9923 -3.91502
lowerneck -5.27377 3.73473 4.96364
upperneck 10.6042 5.04472 -5.02862
head 4.28715 2.38878 -2.08036
rclavicle -9.24349e-015 3.97569e-016
rhumerus -26.6842 -4.55148 -87.7094
rradius 35.2411
rwrist -2.08668
rhand -19.7069 -5.57117
rfingers 7.12502
rthumb 6.62276 -35.4476
lclavicle -9.24349e-015 3.97569e-016
lhumerus -36.4203 12.1914 75.0755
lradius 26.5185
lwrist 19.6701
lhand -16.4133 9.48865
lfingers 7.12502
lthumb 9.80146 39.2405
rfemur -4.30009 4.81743 27.1274
rtibia 31.1039
rfoot -22.9111 -8.67446
rtoes -0.64578
lfemur -11.0547 5.56254 -10.0089
ltibia 27.6142
lfoot -5.7661 -24.908
ltoes 12.6852
72
root 48.7987 15.8162 -25.4294 29.0262 -81.0311 -29.6322
lowerback -0.00491356 1.30233 5.83212
upperback 3.97369 1.57906 -0.706551
thorax 4.30666 0.988806 -3.94272
lowerneck -5.27451 3.63077 4.8889
upperneck 10.5946 4.90171 -4.93755
head 4.27291 2.32064 -2.04875
rclavicle 3.27995e-015 4.77083e-015
rhumerus -26.713 -4.73697 -87.656
rradius 34.8961
rwrist -1.93441
rhand -19.6546 -5.59342
rfingers 7.12502
rthumb 6.67326 -35.4683
lclavicle 3.27995e-015 4.77083e-015
lhumerus -36.4567 12.0953 75.2966
lradius 26.8504
lwrist 19.7815
lhand -16.4494 9.58677
lfingers 7.12502
lthumb 9.76655 39.3403
rfemur -4.20736 4.56915 27.2351
rtibia 30.9784
rfoot -22.9556 -8.8117
rtoes -0.60174
lfemur -11.1787 5.50439 -9.92693
ltibia 27.6388
lfoot -5.35999 -25.1159
ltoes 13.0821
73
root 48.8085 15.8143 -25.4619 27.7601 -80.7152 -28.4121
lowerback 0.00658457 1.29655 5.91389
upperback 3.988 1.56874 -0.685225
thorax 4.31644 0.986676 -3.96699
lowerneck -5.28804 3.535 4.81895
upperneck 10.5677 4.77039 -4.86243
head 4.25686 2.25763 -2.02191
rclavicle -5.26779e-015 2.38542e-015
rhumerus -26.7225 -4.93754 -87.5916
rradius 34.5196
rwrist -1.77066
rhand -19.6036 -5.60687
rfingers 7.12502
rthumb 6.72245 -35.4802
lclavicle -5.26779e-015 2.38542e-015
lhumerus -36.4739 12.0086 75.521
lradius 27.1854
lwrist 19.8777
lhand -16.5139 9.69818
lfingers 7.12502
lthumb 9.70441 39.4546
rfemur -4.11968 4.32093 27.3383
rtibia 30.8577
rfoot -23.0095 -8.92608
rtoes -0.502209
lfemur -11.2996 5.4396 -9.84777
ltibia 27.6602
lfoot -4.96891 -25.31
ltoes 13.4641
74
root 48.8185 15.8125 -25.4944 26.6025 -80.4007 -27.2971
lowerback 0.017599 1.2945 5.99996
upperback 4.00559 1.56322 -0.666442
thorax 4.33075 0.98733 -3.99606
lowerneck -5.31855 3.44034 4.75724
upperneck 10.5382 4.64011 -4.79446
head 4.24345 2.19494 -1.99822
rclavicle -8.94531e-016 -5.56597e-015
rhumerus -26.7202 -5.16617 -87.5218
rradius 34.1236
rwrist -1.58978
rhand -19.5566 -5.60819
rfingers 7.12502
rthumb 6.76786 -35.48
lclavicle -8.94531e-016 -5.56597e-015
lhumerus -36.4657 11.9264 75.741
lradius 27.5115
lwrist 19.9515
lhand -16.5695 9.77636
lfingers 7.12502
lthumb 9.65069 39.5353
rfemur -4.03995 4.07505 27.4401
rtibia 30.7389
rfoot -23.0732 -9.01887
rtoes -0.329672
lfemur -11.4232 5.37215 -9.76851
ltibia 27.6781
lfoot -4.5806 -25.4964
ltoes 13.8538
